<?xml version="1.0" standalone="no"?>
<!DOCTYPE svg PUBLIC "-//W3C//DTD SVG 20010904//EN"
 "http://www.w3.org/TR/2001/REC-SVG-20010904/DTD/svg10.dtd">
<svg version="1.0" xmlns="http://www.w3.org/2000/svg"
 width="1680.000000pt" height="1680.000000pt" viewBox="0 0 1680.000000 1680.000000"
 preserveAspectRatio="xMidYMid meet">
<metadata>
Created by potrace 1.14, written by Peter Selinger 2001-2017
</metadata>
<g transform="translate(0.000000,1680.000000) scale(0.100000,-0.100000)"
fill="#000000" stroke="none">
<path d="M1764 12261 c-4 -20 -8 -40 -9 -46 -2 -5 -15 -64 -29 -130 -15 -66
-31 -133 -36 -150 -5 -16 -11 -43 -14 -60 -2 -16 -5 -30 -6 -30 -2 0 -4 -9 -6
-20 -4 -26 -12 -60 -14 -60 -1 0 -3 -9 -5 -20 -1 -11 -16 -79 -33 -152 -17
-72 -33 -143 -36 -156 l-4 -24 1006 0 c941 -1 1126 -4 1227 -18 22 -3 60 -7
85 -9 25 -3 59 -8 75 -11 17 -4 39 -8 50 -10 36 -5 130 -26 145 -32 8 -3 26
-8 39 -10 38 -6 198 -70 266 -105 312 -162 468 -396 468 -703 0 -93 -6 -183
-14 -192 -1 -2 -2 -11 -3 -20 -1 -10 -5 -28 -9 -40 -4 -12 -9 -30 -11 -40 -2
-10 -14 -47 -27 -83 -55 -160 -175 -345 -301 -466 -74 -71 -191 -164 -206
-164 -6 0 -16 -8 -21 -17 -6 -10 -11 -14 -11 -10 0 5 -14 -2 -31 -14 -42 -30
-229 -120 -314 -152 -116 -43 -289 -91 -403 -112 -15 -3 -37 -7 -48 -9 -37 -8
-98 -17 -139 -22 -22 -2 -56 -6 -75 -9 -150 -20 -726 -28 -723 -10 0 6 4 27 7
49 4 21 8 42 11 46 2 3 7 20 9 36 3 16 8 38 11 49 2 11 14 58 25 105 11 47 22
94 24 105 15 81 27 128 35 144 6 10 9 20 6 22 -2 2 5 40 16 84 11 44 21 91 24
105 5 31 9 48 30 130 8 36 18 76 20 90 7 36 13 65 15 65 1 0 3 9 5 20 2 11 12
50 20 85 9 36 17 73 16 82 0 10 5 20 10 23 5 4 7 10 5 14 -3 4 3 41 14 82 10
41 16 77 13 82 -2 4 0 7 5 7 5 0 9 6 9 13 0 14 20 105 38 177 5 19 10 43 11
53 1 9 2 18 4 20 1 1 3 9 5 17 5 22 12 55 31 138 10 40 14 75 10 79 -8 8 -101
7 -115 -1 -5 -4 -12 -3 -15 2 -2 4 -22 6 -43 5 -38 -3 -80 -3 -118 1 -11 1
-35 -1 -52 -5 -18 -4 -33 -4 -33 0 0 4 -17 5 -37 4 -48 -4 -42 -4 -139 -2 -45
1 -87 -1 -93 -5 -6 -4 -11 -3 -11 1 0 10 -53 9 -69 -2 -6 -3 -11 -3 -11 2 0 4
-26 7 -57 5 -58 -2 -101 -2 -138 2 -11 1 -35 -1 -52 -5 -18 -4 -33 -4 -33 0 0
4 -17 5 -37 4 -48 -4 -42 -4 -139 -2 -45 1 -87 -1 -93 -5 -6 -4 -11 -3 -11 1
0 10 -53 9 -69 -2 -6 -3 -11 -3 -11 2 0 4 -26 7 -57 5 -32 -1 -68 -2 -80 -2
-19 0 -24 -12 -48 -113 -15 -61 -29 -121 -31 -132 -5 -28 -7 -33 -64 -279 -28
-120 -51 -229 -52 -242 -1 -13 -6 -24 -10 -24 -4 0 -8 -10 -8 -23 0 -12 -7
-49 -15 -82 -9 -32 -18 -75 -21 -94 -3 -20 -8 -39 -11 -44 -2 -4 -7 -20 -9
-35 -3 -15 -11 -52 -19 -82 -8 -30 -16 -66 -19 -80 -2 -14 -16 -73 -30 -133
-14 -59 -28 -120 -31 -135 -3 -15 -7 -31 -9 -37 -1 -5 -7 -28 -11 -50 -5 -22
-10 -42 -10 -45 -1 -3 -8 -33 -15 -67 -8 -35 -18 -63 -23 -63 -4 0 -5 -4 -2
-10 3 -5 -1 -35 -9 -67 -8 -32 -18 -71 -21 -88 -3 -16 -12 -57 -20 -90 -9 -33
-17 -69 -19 -80 -7 -31 -14 -61 -41 -175 -13 -58 -27 -116 -29 -130 -2 -14 -5
-25 -6 -25 -2 0 -5 -13 -13 -55 -3 -14 -13 -56 -22 -95 -9 -38 -19 -81 -21
-95 -3 -14 -10 -43 -16 -65 -6 -22 -11 -44 -12 -50 -1 -5 -5 -16 -9 -23 -5 -7
-3 -14 5 -17 18 -7 2481 2 2543 9 28 3 75 8 105 11 143 14 201 22 272 35 28 6
53 8 56 5 3 -2 12 0 21 4 9 5 36 12 61 15 25 3 60 10 79 16 19 5 37 8 39 5 3
-2 12 0 21 4 9 5 30 11 46 14 41 8 73 15 95 22 10 3 29 8 42 11 13 3 28 6 33
8 72 20 107 30 145 43 25 8 52 16 60 18 8 2 15 4 15 5 0 1 7 3 15 5 8 2 40 12
72 23 31 11 59 18 62 15 3 -4 6 -1 6 5 0 7 7 12 15 12 8 0 23 4 33 9 9 5 60
26 112 47 93 37 270 116 300 133 8 5 51 28 95 51 146 77 409 244 453 287 7 7
17 13 21 13 4 0 25 16 47 35 21 19 44 38 49 42 6 5 40 33 75 64 147 128 271
261 373 399 26 36 54 73 62 83 8 9 15 19 15 22 0 2 18 33 40 67 22 35 40 68
40 75 0 6 4 13 8 15 9 3 110 227 116 255 1 10 6 25 9 33 3 8 13 40 22 71 14
51 18 75 31 194 5 53 5 273 -1 355 -6 86 -20 205 -25 205 0 0 -3 18 -5 40 -2
22 -6 49 -9 60 -3 11 -10 40 -16 65 -6 25 -24 85 -41 134 -29 84 -32 136 -9
136 16 0 49 -42 61 -79 6 -20 15 -40 19 -46 5 -5 9 -13 9 -18 1 -18 25 -93 33
-101 4 -6 8 -16 8 -22 0 -7 5 -25 12 -41 14 -34 13 -31 23 -68 4 -16 10 -34
13 -39 5 -8 108 -303 116 -331 2 -5 6 -17 9 -25 4 -8 18 -49 31 -90 14 -41 37
-106 51 -145 14 -38 28 -81 31 -94 3 -14 8 -29 12 -35 3 -6 7 -15 9 -21 1 -5
34 -102 73 -215 71 -201 105 -301 169 -490 18 -52 36 -104 41 -115 5 -11 23
-63 40 -115 18 -52 36 -104 40 -115 5 -11 18 -49 30 -85 11 -36 25 -73 30 -82
6 -10 10 -27 10 -37 0 -11 4 -23 10 -26 6 -3 10 -15 10 -26 0 -10 4 -27 10
-37 5 -9 21 -51 34 -92 14 -41 41 -122 61 -180 78 -226 116 -336 122 -350 3
-8 7 -19 9 -25 1 -5 23 -68 49 -140 25 -71 48 -137 50 -145 3 -13 34 -103 52
-150 3 -8 7 -19 8 -25 2 -5 19 -55 38 -110 19 -55 59 -169 88 -252 l53 -153
31 33 c16 18 50 57 75 86 25 29 60 70 77 90 51 57 55 62 118 136 33 39 74 84
90 102 17 17 40 44 52 60 12 15 34 42 50 60 15 17 35 40 43 50 9 10 38 43 64
73 27 30 69 79 95 109 25 30 53 61 61 70 8 9 40 46 70 81 30 35 62 72 70 81
19 21 63 71 122 140 25 30 56 65 68 79 12 14 41 47 64 74 22 27 55 64 71 82
17 18 39 43 49 56 26 31 127 148 146 168 8 9 35 40 60 70 25 29 54 63 65 76
11 12 43 48 70 80 28 31 55 62 60 68 6 6 52 61 104 121 99 115 120 139 170
193 17 19 31 35 31 38 0 2 8 12 17 22 10 10 41 44 68 76 28 32 61 71 75 86 14
16 43 49 65 75 22 26 45 53 50 59 6 6 53 61 105 121 52 61 102 119 112 130 10
11 28 32 40 46 13 14 48 54 78 89 30 35 60 68 65 74 6 6 25 29 44 51 50 60
133 155 159 181 12 13 22 25 22 28 0 3 12 18 28 34 15 16 50 55 77 87 28 32
55 63 60 69 14 16 116 135 146 170 13 16 33 39 44 50 11 12 47 53 80 91 33 39
64 75 70 81 5 6 28 33 50 59 22 26 47 54 55 63 8 8 26 29 40 47 l25 30 295 2
c767 4 1788 4 1810 -1 14 -3 56 -8 93 -11 38 -3 79 -7 90 -10 12 -2 40 -7 62
-10 22 -4 49 -8 60 -10 11 -1 43 -8 70 -15 28 -6 59 -14 70 -16 11 -3 25 -6
30 -8 107 -26 299 -111 398 -177 103 -69 225 -202 274 -300 61 -121 81 -216
78 -364 -1 -66 -7 -138 -13 -160 -6 -22 -14 -55 -17 -74 -3 -18 -12 -49 -20
-67 -8 -19 -12 -34 -10 -34 13 0 -94 -214 -136 -274 -16 -22 -37 -52 -47 -66
-53 -77 -325 -320 -357 -320 -4 0 -19 -9 -35 -20 -36 -26 -212 -113 -227 -113
-7 0 -13 -4 -13 -8 0 -4 -12 -10 -27 -14 -16 -3 -41 -13 -58 -20 -33 -15 -176
-61 -215 -69 -14 -3 -52 -12 -85 -21 -33 -8 -73 -17 -90 -20 -16 -2 -41 -7
-55 -10 -13 -2 -42 -7 -65 -10 -22 -3 -58 -8 -80 -11 -39 -6 -62 -8 -180 -20
-33 -3 -187 -7 -342 -8 l-281 -2 3 25 c2 15 4 26 5 26 1 0 4 11 6 25 3 14 9
43 15 65 6 22 12 47 14 55 2 8 11 47 20 85 9 39 18 79 21 89 6 31 35 155 55
236 18 75 28 121 33 150 2 8 8 33 14 55 6 22 13 51 16 65 2 14 17 77 31 140
15 63 29 124 31 135 2 11 12 56 24 99 11 44 22 89 25 100 5 25 9 41 29 127 8
37 17 78 20 90 2 13 9 44 15 69 7 25 14 56 17 70 2 14 8 34 11 45 3 11 7 29 9
40 2 11 5 29 8 40 22 82 23 95 13 102 -14 8 -192 7 -206 -2 -6 -3 -11 -2 -11
2 0 5 -17 7 -37 6 -38 -3 -80 -3 -118 1 -11 1 -35 -1 -52 -5 -18 -4 -33 -4
-33 0 0 4 -17 5 -37 4 -38 -3 -80 -3 -118 1 -11 1 -35 -1 -52 -5 -18 -4 -33
-4 -33 0 0 4 -17 5 -37 4 -38 -3 -80 -3 -118 1 -11 1 -35 -1 -52 -5 -18 -4
-33 -4 -33 0 0 4 -17 5 -37 4 -38 -3 -80 -3 -118 1 -11 1 -35 -1 -52 -5 -18
-4 -33 -4 -33 0 0 4 -17 5 -37 4 -51 -4 -43 -4 -181 -2 -68 0 -127 -3 -132 -7
-7 -9 -45 -154 -56 -219 -3 -16 -16 -75 -29 -130 -13 -55 -29 -122 -35 -150
-11 -49 -15 -65 -27 -115 -3 -14 -6 -33 -7 -42 0 -10 -3 -18 -6 -18 -3 0 -6
-8 -7 -17 0 -10 -4 -28 -7 -40 -3 -13 -8 -33 -11 -45 -2 -13 -9 -44 -15 -69
-6 -26 -13 -55 -15 -65 -2 -11 -4 -19 -5 -19 -1 0 -3 -9 -5 -20 -6 -33 -18
-89 -21 -100 -8 -27 -36 -143 -40 -165 -3 -14 -7 -33 -10 -42 -3 -10 -7 -30
-10 -45 -3 -16 -10 -46 -16 -68 -5 -22 -12 -51 -14 -65 -3 -14 -7 -33 -10 -42
-7 -23 -15 -59 -19 -83 -2 -11 -4 -21 -5 -22 -3 -4 -3 -4 -20 -78 -7 -33 -15
-64 -16 -70 -1 -5 -4 -21 -7 -35 -3 -14 -15 -63 -27 -110 -11 -47 -23 -96 -25
-110 -2 -14 -7 -34 -9 -45 -15 -59 -28 -112 -32 -130 -9 -50 -27 -121 -32
-129 -3 -5 -6 -23 -8 -40 -1 -17 -9 -58 -19 -91 -9 -33 -18 -69 -19 -80 -2
-11 -6 -30 -10 -42 -7 -21 -13 -47 -22 -90 -10 -56 -14 -71 -27 -126 -11 -43
-12 -60 -3 -63 17 -6 2474 3 2536 10 30 3 78 8 105 11 28 3 66 6 85 9 47 5
198 26 235 33 32 6 49 9 105 18 19 4 73 15 120 26 47 11 95 22 106 24 65 15
219 57 233 64 9 5 18 9 21 9 4 0 64 16 100 27 3 1 19 5 35 10 17 4 35 11 40
15 14 10 148 55 158 52 4 -1 7 2 7 8 0 5 7 10 15 10 8 0 34 9 58 19 23 11 80
36 127 56 47 20 94 41 104 47 11 6 61 31 110 56 50 26 93 49 96 52 3 3 23 14
45 25 22 11 42 23 45 26 3 3 19 13 36 22 29 15 86 52 214 141 169 117 358 285
490 436 36 41 68 77 72 78 5 2 8 10 8 18 0 8 4 14 9 14 5 0 26 26 47 58 22 31
42 59 45 62 14 13 111 184 146 260 59 124 107 272 128 390 4 19 9 46 11 60 12
63 10 341 -2 401 -8 35 -16 75 -18 89 -2 14 -6 32 -9 40 -3 8 -15 45 -27 82
-12 37 -35 95 -51 128 -16 33 -29 65 -29 70 0 6 -4 10 -10 10 -5 0 -10 5 -10
11 0 9 -77 130 -110 173 -57 74 -211 231 -270 276 -18 14 -41 32 -50 40 -51
43 -61 50 -65 50 -2 0 -32 20 -67 44 -82 56 -337 196 -368 201 -4 0 -109 42
-165 66 -47 20 -278 90 -343 104 -188 41 -214 47 -297 60 -42 7 -111 17 -145
20 -48 5 -147 16 -195 22 -22 3 -844 7 -1827 8 l-1786 3 -49 -57 c-26 -32 -66
-80 -88 -106 -22 -27 -50 -60 -62 -74 -33 -39 -58 -68 -125 -151 -33 -41 -65
-76 -69 -78 -5 -2 -9 -8 -9 -13 0 -6 -10 -20 -22 -33 -13 -13 -30 -32 -38 -42
-32 -40 -105 -129 -110 -134 -3 -3 -22 -26 -43 -52 -21 -26 -43 -53 -50 -60
-10 -11 -63 -76 -102 -126 -5 -7 -17 -21 -25 -30 -16 -17 -90 -108 -120 -146
-8 -10 -29 -35 -46 -55 -17 -20 -86 -106 -154 -191 -68 -85 -130 -161 -138
-167 -9 -7 -12 -13 -7 -13 5 0 0 -8 -11 -19 -20 -20 -29 -30 -84 -101 -19 -25
-38 -46 -42 -48 -5 -2 -8 -10 -8 -17 0 -7 -3 -15 -8 -17 -4 -1 -30 -32 -57
-68 -28 -35 -60 -76 -72 -90 -13 -14 -23 -28 -23 -32 0 -3 -6 -13 -13 -20 -7
-7 -62 -78 -122 -158 -59 -80 -121 -162 -137 -182 -15 -20 -28 -41 -28 -47 0
-5 -4 -11 -8 -13 -12 -4 -82 -105 -82 -117 0 -5 -4 -11 -9 -13 -11 -4 -91
-135 -91 -148 0 -15 -17 -12 -17 3 -1 29 -18 134 -27 165 -3 9 -7 28 -10 42
-3 14 -17 68 -32 120 -14 52 -28 109 -31 125 -3 17 -9 35 -13 40 -4 6 -11 26
-16 45 -11 49 -11 49 -14 55 -1 3 -3 8 -4 13 -1 4 -6 18 -10 32 -4 14 -30 97
-58 185 -44 139 -171 523 -246 745 -3 8 -6 17 -7 20 -2 10 -57 175 -62 190 -3
8 -7 20 -9 25 -1 6 -48 147 -104 315 -56 168 -103 310 -104 315 -2 6 -6 17 -9
25 -8 21 -41 124 -42 130 0 3 -4 10 -8 16 -5 9 -754 12 -2951 12 l-2944 -1 -8
-36z"/>
<path d="M7487 7293 c-1 0 -168 -4 -372 -7 -203 -4 -435 -8 -515 -11 -299 -8
-529 -15 -640 -20 -63 -3 -169 -7 -235 -10 -66 -2 -160 -7 -210 -10 -129 -7
-264 -14 -385 -20 -158 -9 -209 -13 -220 -20 -6 -3 -10 -1 -10 5 0 6 -4 8 -10
5 -5 -3 -40 -8 -77 -10 -120 -7 -237 -16 -283 -20 -25 -3 -83 -7 -130 -10 -47
-3 -101 -7 -120 -9 -19 -3 -75 -7 -125 -11 -127 -10 -162 -13 -225 -20 -57 -6
-93 -9 -220 -20 -41 -4 -86 -8 -100 -10 -21 -3 -101 -11 -190 -20 -14 -1 -47
-5 -75 -9 -27 -4 -75 -9 -105 -12 -30 -3 -66 -7 -80 -9 -14 -1 -52 -6 -85 -10
-33 -4 -67 -9 -75 -10 -9 -2 -43 -6 -75 -10 -33 -4 -73 -9 -90 -12 -16 -2 -43
-5 -60 -7 -65 -8 -131 -17 -160 -22 -16 -3 -43 -7 -60 -9 -16 -2 -30 -4 -30
-5 0 -1 -14 -3 -31 -5 -16 -2 -48 -6 -70 -10 -21 -4 -50 -8 -64 -10 -14 -1
-50 -8 -80 -14 -30 -6 -73 -13 -95 -16 -22 -2 -65 -9 -95 -15 -30 -6 -68 -14
-85 -16 -16 -3 -86 -17 -155 -31 -69 -13 -134 -26 -145 -27 -12 -1 -25 -5 -30
-8 -6 -3 -27 -9 -47 -12 -30 -5 -175 -39 -343 -82 -161 -41 -482 -152 -509
-176 -6 -4 -18 -8 -27 -8 -9 0 -22 -7 -29 -15 -7 -9 -15 -13 -17 -11 -5 5
-122 -62 -141 -81 -7 -7 -17 -13 -21 -13 -18 0 -103 -96 -122 -137 -35 -78 -9
-169 70 -241 59 -54 223 -157 234 -146 2 2 10 -2 17 -11 7 -8 19 -15 27 -15 8
0 27 -6 41 -14 50 -26 77 -36 214 -81 140 -47 259 -81 313 -91 17 -3 37 -9 45
-14 8 -4 33 -11 55 -15 22 -5 45 -9 50 -11 49 -12 288 -64 315 -69 19 -3 44
-9 55 -12 11 -3 29 -7 40 -8 19 -2 46 -6 120 -21 77 -15 173 -33 205 -38 99
-15 114 -18 134 -22 11 -3 40 -7 62 -9 23 -2 54 -6 69 -9 16 -3 49 -8 74 -12
25 -4 55 -8 66 -10 11 -3 38 -6 60 -9 89 -11 121 -15 145 -20 14 -3 48 -7 75
-10 28 -3 66 -7 85 -10 19 -3 53 -7 75 -9 22 -3 40 -5 40 -6 0 -1 14 -3 30 -4
60 -6 161 -17 190 -21 35 -5 134 -16 185 -20 19 -1 59 -5 88 -9 28 -3 75 -8
102 -11 28 -3 72 -7 98 -10 26 -3 77 -8 112 -11 36 -3 81 -7 100 -8 19 -2 78
-7 130 -11 52 -4 111 -9 130 -11 19 -2 71 -6 115 -9 44 -3 103 -7 130 -10 28
-3 93 -8 145 -11 52 -3 118 -7 145 -9 168 -12 387 -25 505 -30 52 -3 95 -5 95
-6 0 0 43 -3 95 -4 52 -2 95 -4 95 -5 0 0 50 -3 110 -5 61 -3 160 -7 220 -10
189 -8 429 -16 591 -20 85 -1 157 -5 161 -8 3 -3 15 -2 28 3 13 5 26 6 29 3 9
-9 465 -15 1196 -15 556 0 1265 7 1265 12 0 1 15 2 33 3 17 1 32 -2 32 -6 0
-5 5 -5 11 -1 7 4 69 8 138 10 144 3 393 11 591 20 74 3 180 7 235 10 204 8
449 21 590 30 50 4 113 8 140 9 28 1 93 6 145 9 52 4 122 9 155 11 56 4 104 7
268 20 86 7 176 14 247 20 30 2 55 5 55 5 0 0 28 3 62 5 34 3 83 7 110 10 26
3 76 8 111 10 34 3 79 7 100 9 20 3 64 8 97 11 108 10 189 19 280 30 22 3 63
8 90 11 28 3 68 7 90 10 96 12 129 15 159 19 36 4 120 15 156 20 14 3 43 7 65
11 22 3 60 8 85 9 25 2 45 4 45 5 0 2 26 6 120 20 44 7 89 14 100 17 11 2 38
6 60 8 22 3 51 7 65 10 29 6 73 14 115 21 17 2 44 7 60 11 17 3 41 7 55 8 14
1 36 5 50 8 26 7 71 16 105 21 11 2 36 7 55 11 19 5 44 9 55 11 11 1 20 3 20
4 0 1 11 3 25 5 14 2 75 15 135 29 61 15 120 28 133 31 13 2 46 11 75 19 29 8
63 17 77 20 36 7 191 53 290 86 226 75 342 127 460 206 82 55 88 61 127 110
47 60 59 124 36 184 -4 8 -7 19 -7 23 -2 15 -110 127 -123 127 -7 0 -13 5 -13
10 0 6 -7 10 -15 10 -8 0 -15 4 -15 9 0 11 -230 124 -310 151 -36 12 -74 26
-85 32 -12 5 -27 10 -35 11 -8 2 -21 6 -27 10 -7 5 -13 6 -13 2 0 -3 -13 1
-29 9 -15 8 -39 17 -52 20 -24 5 -70 18 -131 35 -35 10 -153 40 -178 46 -8 1
-35 8 -60 15 -25 7 -54 14 -65 15 -11 2 -31 6 -45 10 -14 3 -36 8 -50 11 -14
3 -36 7 -50 10 -14 3 -38 8 -55 11 -16 2 -37 7 -45 10 -8 4 -25 8 -37 9 -12 1
-48 8 -80 14 -70 14 -74 14 -193 35 -104 17 -135 23 -165 29 -11 2 -56 9 -100
16 -44 6 -91 14 -105 16 -14 3 -38 6 -55 8 -16 2 -66 9 -110 16 -93 14 -111
17 -185 25 -30 3 -66 8 -80 10 -23 4 -91 13 -150 20 -14 2 -50 6 -80 10 -30 4
-71 9 -90 10 -19 2 -35 4 -35 5 0 0 -22 3 -50 5 -53 4 -126 12 -185 20 -19 3
-62 7 -95 10 -33 3 -82 8 -108 11 -26 3 -74 7 -105 9 -31 2 -57 4 -57 5 0 2
-186 19 -270 25 -22 2 -71 6 -110 9 -38 3 -99 8 -135 10 -36 3 -96 8 -135 11
-116 9 -196 15 -283 20 -46 3 -88 8 -93 11 -5 3 -9 0 -9 -6 0 -6 -5 -8 -12 -4
-7 4 -30 8 -52 10 -76 3 -260 14 -356 21 -52 3 -146 6 -207 7 -62 1 -113 3
-113 6 0 3 -28 6 -63 6 -34 1 -132 4 -217 8 -607 25 -1228 37 -1978 40 -283 0
-514 0 -515 -1z m588 -758 c72 -3 146 -8 165 -10 19 -2 78 -6 130 -10 52 -4
98 -9 102 -11 4 -3 35 -7 70 -9 62 -5 89 -9 138 -19 14 -2 43 -7 65 -11 80
-11 110 -17 125 -22 8 -3 31 -8 50 -10 19 -2 39 -8 45 -13 7 -6 14 -8 17 -5 2
3 29 -2 59 -11 30 -9 59 -17 66 -18 7 -1 16 -5 19 -9 4 -4 14 -7 22 -7 8 0 51
-18 97 -39 78 -36 154 -97 156 -124 0 -7 2 -20 4 -29 2 -10 -1 -20 -6 -24 -5
-3 -7 -9 -4 -14 14 -22 -169 -139 -242 -155 -10 -2 -55 -15 -100 -29 -45 -13
-95 -27 -110 -30 -39 -7 -79 -15 -138 -26 -50 -10 -98 -18 -145 -24 -52 -7
-126 -17 -150 -21 -22 -4 -89 -10 -205 -20 -173 -15 -317 -19 -625 -19 -351 0
-494 6 -710 28 -135 13 -175 18 -181 21 -3 2 -26 5 -52 6 -26 2 -47 5 -47 9 0
3 -11 5 -25 5 -14 -1 -53 4 -88 12 -34 7 -75 15 -92 18 -16 2 -66 14 -110 25
-44 12 -97 25 -118 31 -22 5 -56 18 -77 29 -22 11 -45 20 -52 20 -20 0 -126
72 -144 99 -59 83 -2 154 191 237 62 26 287 85 382 100 45 6 65 9 118 19 64
11 123 18 240 30 33 3 76 8 95 10 83 10 183 16 299 20 68 2 125 5 126 7 6 5
506 0 640 -7z"/>
</g>
</svg>
